# xmcd
#
# Track frame offsets:
#	150
#	15322
#	31059
#	41702
#	57059
#	79526
#	93667
#	109782
#	125954
#	142272
#	159154
#	171883
#	195832
#	209293
#	223087
#	236998
#	253978
#	271635
#
# Disc length: 3763 seconds
#
# Revision: 1
# Processed by: cddbd v1.5.2PL0 Copyright (c) Steve Scherf et al.
# Submitted via: audiograbber 1.83.01
#
DISCID=fa0eb112
DTITLE=Otitis Media - Unplugged - Otitis Media
DYEAR=2016
DGENRE=Deutsch
TTITLE0=FF
TTITLE1=Grüne Kacke
TTITLE2=Scheisskerl
TTITLE3=Tag and Nacht
TTITLE4=Siddhartha
TTITLE5=Streich mir die Gedanken
TTITLE6=Von der Bühne
TTITLE7=Von Ferne
TTITLE8=Der Morgen danach
TTITLE9=Vielleicht
TTITLE10=Oh Babe!
TTITLE11=Unheimliches Schweigen
TTITLE12=Rumbalala
TTITLE13=Schlichtes Lied
TTITLE14=rastloser Geisrt
TTITLE15=Pech gehabt
TTITLE16=Der Blues
TTITLE17=Wir fahren
EXTD=
EXTT0=
EXTT1=
EXTT2=
EXTT3=
EXTT4=
EXTT5=
EXTT6=
EXTT7=
EXTT8=
EXTT9=
EXTT10=
EXTT11=
EXTT12=
EXTT13=
EXTT14=
EXTT15=
EXTT16=
EXTT17=
PLAYORDER=
